<svg width="137" height="31" viewBox="0 0 137 31" fill="none" xmlns="http://www.w3.org/2000/svg">
<path fill-rule="evenodd" clip-rule="evenodd" d="M14.0949 0V4.505C11.2076 4.505 8.43851 5.66087 6.39684 7.71833C4.35518 9.77579 3.20818 12.5663 3.20818 15.476C3.20818 18.3857 4.35518 21.1762 6.39684 23.2337C8.43851 25.2911 11.2076 26.447 14.0949 26.447V30.952H0V0H14.0949ZM14.0949 26.447L14.0949 4.505C16.9823 4.505 19.7514 5.66087 21.793 7.71834C23.8347 9.7758 24.9817 12.5663 24.9817 15.476C24.9817 18.3857 23.8347 21.1762 21.793 23.2337C19.7514 25.2911 16.9823 26.447 14.0949 26.447ZM36.0473 7.26099H32.8917V22.578H36.0473V7.26099ZM38.7473 14.2359C38.1391 15.1518 37.8144 16.229 37.8144 17.331C37.8046 18.0618 37.9397 18.7873 38.2117 19.4649C38.4838 20.1424 38.8873 20.7585 39.3988 21.2768C39.9102 21.7951 40.5191 22.2053 41.1899 22.4834C41.8607 22.7614 42.5798 22.9017 43.3051 22.896C44.3987 22.9023 45.4694 22.5812 46.3817 21.9736C47.294 21.3659 48.0067 20.499 48.4295 19.4827C48.8523 18.4664 48.9662 17.3465 48.7567 16.2649C48.5472 15.1833 48.0237 14.1888 47.2527 13.4073C46.4817 12.6258 45.4977 12.0927 44.4257 11.8753C43.3536 11.658 42.2417 11.7664 41.2307 12.1866C40.2198 12.6069 39.3555 13.3201 38.7473 14.2359ZM45.2899 16.006C45.5609 16.395 45.712 16.8559 45.7244 17.331H45.7034C45.7208 17.6541 45.6719 17.9774 45.5597 18.2807C45.4475 18.5839 45.2744 18.8606 45.0513 19.0934C44.8282 19.3262 44.5599 19.5101 44.263 19.6336C43.9662 19.7572 43.6473 19.8177 43.3262 19.8114C42.8546 19.8112 42.3935 19.6709 42.0006 19.4081C41.6077 19.1452 41.3004 18.7714 41.1171 18.3335C40.9339 17.8956 40.8829 17.413 40.9704 16.946C41.058 16.479 41.2802 16.0484 41.6093 15.708C41.9384 15.3676 42.3598 15.1325 42.8208 15.0322C43.2818 14.9319 43.7619 14.9708 44.201 15.144C44.6402 15.3172 45.019 15.617 45.2899 16.006ZM61.2815 12.0839V22.0585C61.2815 25.5777 58.5467 27.0723 55.7803 27.0723C54.8045 27.153 53.8258 26.9577 52.9542 26.5082C52.0826 26.0588 51.3529 25.3731 50.847 24.5283L53.5083 22.9807C53.7239 23.4189 54.0669 23.7804 54.4916 24.0171C54.9163 24.2538 55.4025 24.3545 55.8855 24.3057C56.1931 24.3439 56.5053 24.3131 56.7998 24.2156C57.0942 24.118 57.3637 23.9561 57.5888 23.7414C57.8139 23.5267 57.9892 23.2645 58.102 22.9736C58.2149 22.6826 58.2626 22.3702 58.2416 22.0585V21.0939C57.8744 21.5426 57.4085 21.8988 56.8808 22.1344C56.3531 22.3699 55.7782 22.4782 55.2018 22.4507C53.8069 22.4507 52.4692 21.8923 51.4829 20.8984C50.4966 19.9045 49.9424 18.5564 49.9424 17.1507C49.9424 15.7451 50.4966 14.397 51.4829 13.4031C52.4692 12.4091 53.8069 11.8507 55.2018 11.8507C55.7782 11.8233 56.3531 11.9316 56.8808 12.1671C57.4085 12.4026 57.8744 12.7589 58.2416 13.2075V12.1475L61.2815 12.0839ZM58.2416 17.1189C58.2626 16.6118 58.1326 16.1099 57.8683 15.6779C57.6039 15.2458 57.2174 14.9033 56.7584 14.6944C56.2993 14.4855 55.7887 14.4197 55.2923 14.5056C54.7959 14.5915 54.3363 14.825 53.9727 15.1762C53.609 15.5274 53.3579 15.9802 53.2517 16.4763C53.1454 16.9725 53.1889 17.4893 53.3765 17.9604C53.5641 18.4315 53.8872 18.8352 54.3043 19.1197C54.7215 19.4042 55.2135 19.5565 55.7172 19.5569C56.0458 19.5808 56.3758 19.5349 56.6858 19.4223C56.9957 19.3096 57.2788 19.1327 57.5167 18.903C57.7546 18.6732 57.9421 18.3957 58.0669 18.0884C58.1918 17.7811 58.2513 17.4508 58.2416 17.1189ZM63.9905 14.2381C63.3832 15.1535 63.0591 16.2298 63.0591 17.3309C63.0506 18.0632 63.1874 18.7898 63.4613 19.4681C63.7351 20.1464 64.1406 20.7628 64.654 21.2811C65.1674 21.7995 65.7782 22.2093 66.4508 22.4866C67.1234 22.7639 67.8442 22.903 68.5708 22.8959C69.6635 22.898 70.7322 22.5734 71.6417 21.9632C72.5512 21.353 73.2607 20.4846 73.6802 19.4679C74.0998 18.4512 74.2107 17.332 73.9988 16.2518C73.7869 15.1716 73.2618 14.179 72.4899 13.3996C71.718 12.6203 70.7341 12.0892 69.6626 11.8736C68.5911 11.6581 67.4802 11.7676 66.4705 12.1885C65.4608 12.6094 64.5977 13.3227 63.9905 14.2381ZM70.5338 16.0049C70.8052 16.3941 70.9566 16.8554 70.9691 17.3309H70.9586C70.976 17.6541 70.9271 17.9774 70.8149 18.2806C70.7027 18.5839 70.5296 18.8606 70.3065 19.0934C70.0834 19.3261 69.8151 19.5101 69.5182 19.6336C69.2214 19.7571 68.9025 19.8176 68.5814 19.8113C68.1093 19.8132 67.6472 19.6747 67.2529 19.4132C66.8586 19.1516 66.5497 18.7786 66.3649 18.3408C66.1801 17.9031 66.1275 17.4201 66.2139 16.9525C66.3002 16.4848 66.5216 16.0532 66.8503 15.7118C67.179 15.3703 67.6003 15.1342 68.0616 15.033C68.5229 14.9319 69.0035 14.9701 69.4433 15.143C69.883 15.3159 70.2624 15.6157 70.5338 16.0049ZM75.5447 9.27493C75.5447 8.90175 75.6545 8.53696 75.8603 8.22667C76.066 7.91639 76.3584 7.67455 76.7005 7.53175C77.0427 7.38894 77.4191 7.35158 77.7823 7.42438C78.1455 7.49718 78.4791 7.67688 78.741 7.94076C79.0028 8.20463 79.1811 8.54082 79.2534 8.90683C79.3256 9.27283 79.2885 9.6522 79.1468 9.99697C79.0051 10.3417 78.7652 10.6364 78.4573 10.8437C78.1494 11.0511 77.7874 11.1617 77.4171 11.1617C76.9222 11.1562 76.4491 10.9557 76.0992 10.603C75.7492 10.2503 75.5502 9.77363 75.5447 9.27493ZM75.8498 12.0839H79.0054V22.5779H75.8498V12.0839ZM92.2113 19.385C92.4447 18.727 92.5466 18.0289 92.5112 17.331C92.5423 16.6357 92.4372 15.941 92.2019 15.2866C91.9666 14.6323 91.6056 14.031 91.1397 13.5172C90.6738 13.0034 90.1121 12.5871 89.4865 12.2921C88.8609 11.9971 88.1838 11.8291 87.4939 11.7978C86.9067 11.7563 86.3179 11.8491 85.7714 12.0694C85.225 12.2897 84.735 12.6317 84.3383 13.0698V12.084H81.1827V26.7968H84.3383V21.6134C84.7345 22.0528 85.2241 22.3964 85.7705 22.6184C86.3169 22.8405 86.906 22.9354 87.4939 22.896C88.1866 22.8648 88.8664 22.6958 89.4941 22.3987C90.1218 22.1017 90.685 21.6826 91.1513 21.1653C91.6177 20.6481 91.9779 20.0431 92.2113 19.385ZM88.9062 15.9579C89.1869 16.361 89.3432 16.8387 89.3557 17.331C89.3797 17.6677 89.3328 18.0058 89.2181 18.323C89.1033 18.6402 88.9234 18.9294 88.69 19.1716C88.4566 19.4139 88.175 19.6036 87.8637 19.7285C87.5525 19.8534 87.2185 19.9105 86.8838 19.8962C86.3951 19.8981 85.9167 19.7546 85.5086 19.4837C85.1004 19.2129 84.7808 18.8266 84.5895 18.3734C84.3983 17.9201 84.3441 17.4201 84.4337 16.936C84.5233 16.4519 84.7527 16.0052 85.0932 15.6519C85.4336 15.2986 85.87 15.0544 86.3476 14.9499C86.8251 14.8455 87.3227 14.8854 87.7778 15.0647C88.233 15.244 88.6255 15.5547 88.9062 15.9579ZM102.115 19.4298C102.115 21.8466 100.011 22.8748 97.781 22.8748C96.8715 22.9573 95.9584 22.763 95.1596 22.317C94.3608 21.8711 93.7131 21.1939 93.3001 20.3732L96.0139 18.8256C96.1214 19.2038 96.3546 19.5333 96.6743 19.7591C96.9941 19.9849 97.3811 20.0931 97.7705 20.0658C98.5173 20.0658 98.896 19.8326 98.896 19.4086C98.896 18.992 98.2303 18.8056 97.3788 18.5671C95.8684 18.144 93.7734 17.5572 93.7734 15.2322C93.7734 12.9426 95.6878 11.7978 97.8547 11.7978C98.6783 11.7606 99.4966 11.9489 100.223 12.3427C100.949 12.7365 101.555 13.3211 101.978 14.0344L99.2642 15.476C99.1443 15.2025 98.9484 14.9699 98.7001 14.8062C98.4518 14.6426 98.1618 14.5549 97.8652 14.5538C97.3182 14.5538 96.9921 14.7658 96.9921 15.1368C96.9921 15.5696 97.6494 15.7454 98.493 15.9711C100.005 16.3754 102.115 16.9398 102.115 19.4298ZM113.548 22.578V12.084H110.435V17.861C110.435 19.3026 109.635 19.981 108.499 19.981C108.25 19.996 108.001 19.9564 107.768 19.8648C107.536 19.7731 107.326 19.6317 107.153 19.4503C106.979 19.2689 106.848 19.0518 106.766 18.814C106.684 18.5762 106.655 18.3234 106.68 18.073V12.084H103.524V18.55C103.524 21.3802 105.323 22.896 107.427 22.896C107.988 22.9281 108.549 22.8268 109.064 22.6004C109.579 22.3739 110.034 22.0285 110.393 21.5922V22.578H113.548ZM131.43 16.1331V22.5779H128.274V16.4087C128.274 15.3487 127.78 14.6915 126.781 14.6915C125.782 14.6915 125.15 15.4229 125.15 16.6631V22.5779H121.995V16.4087C121.995 15.3487 121.5 14.6915 120.501 14.6915C119.502 14.6915 118.871 15.4229 118.871 16.6631V22.5779H115.715V12.0839H118.871V13.0485C119.197 12.6224 119.624 12.2849 120.113 12.0665C120.601 11.8481 121.136 11.7558 121.669 11.7977C122.202 11.7697 122.734 11.8819 123.212 12.1235C123.689 12.3651 124.097 12.7277 124.393 13.1757C124.74 12.7077 125.198 12.3358 125.726 12.0948C126.254 11.8538 126.834 11.7516 127.412 11.7977C129.873 11.7977 131.43 13.5149 131.43 16.1331ZM136.395 9.68833C136.395 10.9763 135.359 12.0203 134.081 12.0203C132.803 12.0203 131.767 10.9763 131.767 9.68833C131.767 8.4004 132.803 7.35632 134.081 7.35632C135.359 7.35632 136.395 8.4004 136.395 9.68833Z" fill="white" fill-opacity="0.45"/>
</svg>
